<?xml version="1.0" standalone="no"?>
<!DOCTYPE svg PUBLIC "-//W3C//DTD SVG 20010904//EN"
 "http://www.w3.org/TR/2001/REC-SVG-20010904/DTD/svg10.dtd">
<svg version="1.0" xmlns="http://www.w3.org/2000/svg"
 width="957.000000pt" height="1280.000000pt" viewBox="0 0 957.000000 1280.000000"
 preserveAspectRatio="xMidYMid meet">
<metadata>
Created by potrace 1.15, written by Peter Selinger 2001-2017
</metadata>
<g transform="translate(0.000000,1280.000000) scale(0.100000,-0.100000)"
fill="#000000" stroke="none">
<path d="M4260 12749 c-64 -87 -99 -204 -100 -331 0 -48 -4 -68 -12 -68 -41
-1 -465 -31 -555 -40 -285 -28 -488 -78 -549 -135 -57 -54 -51 -72 71 -243 55
-77 59 -117 18 -161 l-28 -30 -190 -10 c-104 -6 -372 -18 -595 -26 -637 -23
-895 -35 -1030 -46 -566 -46 -849 -150 -1084 -400 -71 -76 -202 -256 -192
-266 2 -2 22 7 43 20 63 40 181 97 273 132 265 103 560 141 941 124 201 -9
320 -23 749 -84 550 -79 552 -80 850 -80 300 0 302 0 395 61 65 43 107 108
139 215 47 156 104 186 336 176 120 -6 424 -48 437 -61 3 -2 9 -233 14 -511
l10 -507 -28 -37 c-15 -20 -46 -59 -70 -88 -51 -60 -30 -54 -323 -84 -113 -11
-245 -27 -294 -35 -311 -53 -490 -182 -625 -453 -23 -45 -40 -85 -38 -88 3 -2
35 17 73 42 129 89 284 156 429 186 103 22 555 12 555 -12 0 -5 -153 -385
-341 -844 -188 -460 -340 -838 -338 -839 2 -2 44 12 93 31 443 172 1004 215
1566 122 118 -20 432 -95 492 -118 l28 -10 -15 37 c-9 20 -156 379 -329 797
-173 418 -311 761 -308 762 4 2 160 -6 347 -15 l340 -18 393 189 c217 104 396
186 399 183 3 -3 -2 -170 -12 -371 l-17 -367 -48 -77 c-202 -326 -357 -756
-575 -1596 -57 -220 -109 -413 -114 -428 -6 -15 -7 -27 -3 -27 5 0 69 16 143
35 229 59 358 76 610 82 308 7 516 -15 822 -88 71 -17 130 -30 131 -28 2 2
-25 99 -60 214 -34 116 -99 336 -144 490 -202 690 -357 1096 -513 1343 l-41
65 -32 836 c-18 460 -33 865 -34 900 l0 64 -52 -79 c-65 -100 -106 -186 -114
-241 -4 -27 -13 -47 -25 -53 -10 -6 -60 -10 -111 -10 -135 0 -344 -18 -481
-40 -266 -44 -315 -113 -192 -265 79 -98 94 -154 53 -192 -22 -19 -45 -21
-373 -32 -192 -6 -395 -14 -450 -17 l-100 -5 -52 72 c-53 72 -53 73 -53 148 0
68 -14 563 -51 1841 -7 223 -15 411 -19 419 -6 10 -16 3 -40 -30z"/>
<path d="M3328 7778 l-3 -443 -65 133 -64 134 -442 -884 -443 -883 25 -22 c13
-12 24 -31 24 -41 0 -15 10 -21 46 -26 26 -3 60 -6 75 -6 l29 0 0 -1651 0
-1651 -27 6 c-61 12 -363 65 -435 77 l-78 12 0 68 c0 38 -3 69 -8 69 -4 0 -70
-63 -146 -139 l-139 -139 39 -7 c21 -4 45 -9 53 -11 15 -5 15 -59 -10 -1034
-6 -234 -9 -497 -7 -585 l3 -159 140 -43 c961 -297 1785 -470 2555 -535 235
-20 814 -17 1020 5 509 55 938 170 1335 358 420 198 854 523 1212 905 396 423
705 847 1372 1879 l181 280 -64 64 -64 64 -109 -70 c-274 -179 -809 -493 -838
-493 -3 0 -5 660 -5 1466 l0 1465 111 -3 c98 -3 110 -1 106 13 -7 27 -872
1868 -877 1869 -3 0 -52 -94 -110 -210 -58 -116 -107 -210 -110 -210 -3 0 -49
93 -102 207 l-96 206 -161 -319 -160 -319 0 63 -1 62 -840 0 -840 0 0 -695 0
-695 -100 0 -100 0 0 1155 0 1155 -940 0 -940 0 -2 -442z m3362 -5473 c0 -27
3 -26 -180 -69 -130 -31 -401 -81 -537 -99 l-103 -14 0 63 0 62 63 7 c34 4
199 21 367 39 168 19 324 34 348 35 38 1 42 -1 42 -24z m-2002 -197 c-5 -13
-18 -14 -110 -9 -51 3 -52 4 -18 11 61 13 132 11 128 -2z"/>
</g>
</svg>
